<svg width="109" height="48" viewBox="0 0 109 48" fill="none" xmlns="http://www.w3.org/2000/svg">
<path fill-rule="evenodd" clip-rule="evenodd" d="M0 23.4146V46.8293H23.3838H46.7676V23.4146V0H23.3838H0V23.4146ZM51.4444 3.38693C51.4444 5.31746 52.1985 7.0642 53.1982 7.4482C54.4165 7.91532 54.9519 9.81893 54.9519 13.6788V19.2375L61.3825 12.878C66.1165 8.19629 67.813 5.65932 67.813 3.25932C67.813 0.00468274 67.8025 0 59.6287 0H51.4444V3.38693ZM72.4898 3.5122C72.4898 5.4439 73.0159 7.02439 73.659 7.02439C74.302 7.02439 74.8282 9.39512 74.8282 12.2927C74.8282 15.1902 75.2409 17.561 75.7448 17.561C77.8821 17.561 88.8585 5.03649 88.8585 2.59785C88.8585 0.161561 88.3475 0 80.6741 0H72.4898V3.5122ZM92.366 3.5122C92.366 5.85366 92.9506 7.02439 94.1198 7.02439C95.4235 7.02439 95.8736 8.40117 95.8736 12.3899C95.8736 15.3413 96.3424 17.5809 96.9153 17.3655C97.4883 17.1512 100.382 14.7255 103.346 11.9754C107.429 8.1881 108.735 6.13112 108.735 3.48761V0H100.55H92.366V3.5122ZM61.0902 18.6755L54.9519 25.495V36.7481V48H61.9671H68.9822V29.8537C68.9822 19.8732 68.5882 11.7413 68.1053 11.7822C67.6225 11.8232 64.4668 14.9257 61.0902 18.6755ZM81.4902 18.2716L74.8282 24.8371V36.4179V48H81.8433H88.8585V29.8537C88.8585 19.8732 88.6994 11.7073 88.5054 11.7073C88.3101 11.7073 85.1533 14.6611 81.4902 18.2716ZM101.427 19.1157L95.8736 25.0958V36.5479V48H102.304H108.735V30.439C108.735 20.7805 108.34 12.9354 107.858 13.0068C107.376 13.0771 104.481 15.8271 101.427 19.1157ZM12.8611 22.8293V31.6098H23.3838H33.9065V24.7668C33.9065 15.4654 32.2334 14.0488 21.2454 14.0488H12.8611V22.8293Z" fill="#006179"/>
</svg>
